<svg viewBox="0 0 288 288" xmlns="http://www.w3.org/2000/svg">

  <line x1="016" y1="016" x2="080" y2="080" stroke="darkgray" stroke-width="9" stroke-linecap="square" />
  <line x1="208" y1="016" x2="272" y2="080" stroke="darkgray" stroke-width="9" stroke-linecap="square" />
  <line x1="016" y1="208" x2="080" y2="272" stroke="darkgray" stroke-width="9" stroke-linecap="square" />
  <line x1="208" y1="208" x2="272" y2="272" stroke="darkgray" stroke-width="9" stroke-linecap="square" />

  <line x1="176" y1="048" x2="208" y2="080" stroke="gray" stroke-width="18" stroke-linecap="round"  />
  <line x1="112" y1="112" x2="144" y2="144" stroke="gray" stroke-width="18" stroke-linecap="round" />
  <line x1="176" y1="112" x2="208" y2="144" stroke="gray" stroke-width="18" stroke-linecap="round" />
  <line x1="112" y1="176" x2="144" y2="208" stroke="gray" stroke-width="18" stroke-linecap="round" />
  <line x1="176" y1="176" x2="208" y2="208" stroke="gray" stroke-width="18" stroke-linecap="round" />
  <line x1="080" y1="144" x2="112" y2="176" stroke="gray" stroke-width="18" stroke-linecap="round" />
  <line x1="208" y1="144" x2="240" y2="176" stroke="gray" stroke-width="18" stroke-linecap="round" />
  <line x1="080" y1="208" x2="112" y2="240" stroke="gray" stroke-width="18" stroke-linecap="round" />
  <line x1="144" y1="208" x2="176" y2="240" stroke="gray" stroke-width="18" stroke-linecap="round" />

  <line x1="016" y1="016" x2="016" y2="208" stroke="red" stroke-width="9" stroke-linecap="square" />
  <line x1="016" y1="016" x2="208" y2="016" stroke="red" stroke-width="9" stroke-linecap="square" />
  <line x1="208" y1="016" x2="208" y2="208" stroke="red" stroke-width="9" stroke-linecap="square" />
  <line x1="016" y1="208" x2="208" y2="208" stroke="red" stroke-width="9" stroke-linecap="square" />

  <line x1="016" y1="080" x2="208" y2="080" stroke="red" stroke-width="9" stroke-linecap="square" />
  <line x1="080" y1="144" x2="144" y2="144" stroke="red" stroke-width="9" stroke-linecap="square" />
  <line x1="080" y1="080" x2="080" y2="144" stroke="red" stroke-width="9" stroke-linecap="square" />

  <line x1="048" y1="048" x2="048" y2="240" stroke="green" stroke-width="9" stroke-linecap="square" />
  <line x1="048" y1="048" x2="240" y2="048" stroke="green" stroke-width="9" stroke-linecap="square" />
  <line x1="240" y1="048" x2="240" y2="240" stroke="green" stroke-width="9" stroke-linecap="square" />
  <line x1="048" y1="240" x2="240" y2="240" stroke="green" stroke-width="9" stroke-linecap="square" />

  <line x1="048" y1="112" x2="112" y2="112" stroke="green" stroke-width="9" stroke-linecap="square" />
  <line x1="176" y1="112" x2="240" y2="112" stroke="green" stroke-width="9" stroke-linecap="square" />
  <line x1="112" y1="176" x2="240" y2="176" stroke="green" stroke-width="9" stroke-linecap="square" />
  <line x1="112" y1="112" x2="112" y2="240" stroke="green" stroke-width="9" stroke-linecap="square" />
  <line x1="176" y1="112" x2="176" y2="240" stroke="green" stroke-width="9" stroke-linecap="square" />

  <line x1="080" y1="080" x2="080" y2="272" stroke="blue" stroke-width="9" stroke-linecap="square" />
  <line x1="080" y1="080" x2="272" y2="080" stroke="blue" stroke-width="9" stroke-linecap="square" />
  <line x1="272" y1="080" x2="272" y2="272" stroke="blue" stroke-width="9" stroke-linecap="square" />
  <line x1="080" y1="272" x2="272" y2="272" stroke="blue" stroke-width="9" stroke-linecap="square" />

  <line x1="144" y1="144" x2="208" y2="144" stroke="blue" stroke-width="9" stroke-linecap="square" />
  <line x1="080" y1="208" x2="144" y2="208" stroke="blue" stroke-width="9" stroke-linecap="square" />
  <line x1="144" y1="144" x2="144" y2="208" stroke="blue" stroke-width="9" stroke-linecap="square" />
  <line x1="208" y1="144" x2="208" y2="272" stroke="blue" stroke-width="9" stroke-linecap="square" />

</svg>
